<svg width="86" height="100" viewBox="0 0 86 100" fill="none" xmlns="http://www.w3.org/2000/svg">
<g clip-path="url(#clip0_502_2)">
<path d="M86 77.2459V72.016L84.4305 69.0247V79.1763C84.8098 78.9903 85.1461 78.7217 85.4171 78.3887C85.6878 78.0557 85.8866 77.6658 86 77.2459Z" fill="#F4BA2B"/>
<path d="M81.3632 63.1271V80.0994C81.8989 80.0948 82.432 80.0269 82.953 79.8981V66.108L81.3632 63.1271Z" fill="#F4BA2B"/>
<path d="M78.2552 57.176V79.1763C78.7542 79.4669 79.2893 79.6846 79.845 79.8236V60.1355L78.2552 57.176Z" fill="#F4BA2B"/>
<path d="M75.1572 51.2255V74.955L76.4414 77.6387L76.686 77.8934V54.185L75.1572 51.2255Z" fill="#F4BA2B"/>
<path d="M73.5668 71.8156V48.2874L72.0381 45.2961V68.6331L73.5668 71.8156Z" fill="#F4BA2B"/>
<path d="M69.6233 65.8642L70.4588 65.461V42.3363L68.9303 39.3448V66.1718L69.6233 65.8642Z" fill="#F4BA2B"/>
<path d="M65.8223 67.5928L67.3612 66.8927V36.4061L65.8223 33.4676V67.5928Z" fill="#F4BA2B"/>
<path d="M64.232 30.4654L62.7032 27.5166V48.8593L64.232 51.8505V30.4654Z" fill="#F4BA2B"/>
<path d="M64.232 55.7975L62.7032 56.5083V69.0253L64.232 68.3145V55.7975Z" fill="#F4BA2B"/>
<path d="M61.1343 24.5262L59.5954 21.5879V42.9093L61.1343 45.9009V24.5262Z" fill="#F4BA2B"/>
<path d="M61.1343 57.2191L59.5954 57.9509V70.4893L61.1343 69.7361V57.2191Z" fill="#F4BA2B"/>
<path d="M58.0566 18.6281L56.4972 15.6367V36.9794L58.0566 39.9709V18.6281Z" fill="#F4BA2B"/>
<path d="M58.0566 58.6617L56.4972 59.3618V71.9002L58.0566 71.1894V58.6617Z" fill="#F4BA2B"/>
<path d="M54.9481 60.0726L53.3686 60.7833V73.2793L54.9481 72.5685V60.0726Z" fill="#F4BA2B"/>
<path d="M54.9481 12.7298L53.3686 9.74896V31.028L54.9481 34.0089V12.7298Z" fill="#F4BA2B"/>
<path d="M51.8395 6.74669L50.311 3.80835V25.1299L51.8905 28.1319V6.74669H51.8395Z" fill="#F4BA2B"/>
<path d="M51.8406 61.4511L50.2508 62.1619V74.7531L51.8406 74.0423V61.4511Z" fill="#F4BA2B"/>
<path d="M45.5625 0.000986578H41.3636C40.2917 0.0589278 39.2608 0.446704 38.4009 1.11519C37.5409 1.78368 36.891 2.70281 36.5332 3.75614L0.742649 72.526C0.742649 72.526 -1.72356 77.4587 2.33243 79.7392C2.97102 80.1782 3.6911 80.4728 4.44602 80.6037C5.20093 80.7345 5.97387 80.6987 6.71466 80.4988C7.45545 80.2987 8.14761 79.9388 8.74623 79.4426C9.34486 78.9461 9.83664 78.3246 10.1896 77.6179C11.2087 75.6871 16.3042 65.6736 16.3042 65.6736L37.7051 75.422V94.3144C37.7051 95.5343 38.2047 100 43.0351 100C48.3038 100 48.5075 94.6006 48.5075 94.6006V1.56032C48.1789 1.06707 47.7378 0.666415 47.2239 0.394269C46.7097 0.122122 46.1388 -0.0130106 45.5625 0.000986578ZM37.7254 62.8305L20.5232 54.9914L37.7664 22.1075L37.7254 62.8305Z" fill="#F4BA2B"/>
<path d="M86 77.2459V72.016L84.4305 69.0247V79.1763C84.8098 78.9903 85.1461 78.7217 85.4171 78.3887C85.6878 78.0557 85.8866 77.6658 86 77.2459Z" fill="#F4BA2B"/>
<path d="M81.3632 63.1271V80.0994C81.8989 80.0948 82.432 80.0269 82.953 79.8981V66.108L81.3632 63.1271Z" fill="#F4BA2B"/>
<path d="M78.2552 57.176V79.1763C78.7542 79.4669 79.2893 79.6846 79.845 79.8236V60.1355L78.2552 57.176Z" fill="#F4BA2B"/>
<path d="M75.1572 51.2255V74.955L76.4414 77.6387L76.686 77.8934V54.185L75.1572 51.2255Z" fill="#F4BA2B"/>
<path d="M73.5668 71.8156V48.2874L72.0381 45.2961V68.6331L73.5668 71.8156Z" fill="#F4BA2B"/>
<path d="M69.6233 65.8642L70.4588 65.461V42.3363L68.9303 39.3448V66.1718L69.6233 65.8642Z" fill="#F4BA2B"/>
<path d="M65.8223 67.5928L67.3612 66.8927V36.4061L65.8223 33.4676V67.5928Z" fill="#F4BA2B"/>
<path d="M64.232 30.4654L62.7032 27.5166V48.8593L64.232 51.8505V30.4654Z" fill="#F4BA2B"/>
<path d="M64.232 55.7975L62.7032 56.5083V69.0253L64.232 68.3145V55.7975Z" fill="#F4BA2B"/>
<path d="M61.1343 24.5262L59.5954 21.5879V42.9093L61.1343 45.9009V24.5262Z" fill="#F4BA2B"/>
<path d="M61.1343 57.2191L59.5954 57.9509V70.4893L61.1343 69.7361V57.2191Z" fill="#F4BA2B"/>
<path d="M58.0566 18.6281L56.4972 15.6367V36.9794L58.0566 39.9709V18.6281Z" fill="#F4BA2B"/>
<path d="M58.0566 58.6617L56.4972 59.3618V71.9002L58.0566 71.1894V58.6617Z" fill="#F4BA2B"/>
<path d="M54.9481 60.0726L53.3686 60.7833V73.2793L54.9481 72.5685V60.0726Z" fill="#F4BA2B"/>
<path d="M54.9481 12.7298L53.3686 9.74896V31.028L54.9481 34.0089V12.7298Z" fill="#F4BA2B"/>
<path d="M51.8395 6.74669L50.311 3.80835V25.1299L51.8905 28.1319V6.74669H51.8395Z" fill="#F4BA2B"/>
<path d="M51.8406 61.4511L50.2508 62.1619V74.7531L51.8406 74.0423V61.4511Z" fill="#F4BA2B"/>
<path d="M45.5625 0.000986578H41.3636C40.2917 0.0589278 39.2608 0.446704 38.4009 1.11519C37.5409 1.78368 36.891 2.70281 36.5332 3.75614L0.742649 72.526C0.742649 72.526 -1.72356 77.4587 2.33243 79.7392C2.97102 80.1782 3.6911 80.4728 4.44602 80.6037C5.20093 80.7345 5.97387 80.6987 6.71466 80.4988C7.45545 80.2987 8.14761 79.9388 8.74623 79.4426C9.34486 78.9461 9.83664 78.3246 10.1896 77.6179C11.2087 75.6871 16.3042 65.6736 16.3042 65.6736L37.7051 75.422V94.3144C37.7051 95.5343 38.2047 100 43.0351 100C48.3038 100 48.5075 94.6006 48.5075 94.6006V1.56032C48.1789 1.06707 47.7378 0.666415 47.2239 0.394269C46.7097 0.122122 46.1388 -0.0130106 45.5625 0.000986578ZM37.7254 62.8305L20.5232 54.9914L37.7664 22.1075L37.7254 62.8305Z" fill="#F4BA2B"/>
</g>
<defs>
<clipPath id="clip0_502_2">
<rect width="86" height="100" fill="white"/>
</clipPath>
</defs>
</svg>
